<svg aria-hidden="true" style="position:absolute;width:0;height:0;overflow:hidden" xmlns="http://www.w3.org/2000/svg">
  <defs>
    <symbol id="icon-back" viewBox="0 0 26 32">
      <path d="M22.112 12.4H4.456L12.4 4.452a.398.398 0 1 0-.564-.564l-8.628 8.628a.4.4 0 0 0 0 .568l8.628 8.628c.08.08.18.116.284.116s.204-.04.284-.116a.398.398 0 0 0 0-.564L4.456 13.2h17.656c.22 0 .4-.18.4-.4s-.18-.4-.4-.4z"/>
    </symbol>
    <symbol id="icon-heart" viewBox="0 0 26 32">
      <path d="M12.816 21.052c-.271 0-.526-.104-.718-.297l-7.373-7.373a5.094 5.094 0 0 1-1.504-3.626A5.094 5.094 0 0 1 4.725 6.13a5.094 5.094 0 0 1 3.626-1.504 5.094 5.094 0 0 1 3.626 1.504l.77.77c.021.021.047.026.062.026s.042-.005.062-.026l.77-.77a5.094 5.094 0 0 1 3.626-1.504 5.094 5.094 0 0 1 3.626 1.504 5.094 5.094 0 0 1 1.504 3.626 5.094 5.094 0 0 1-1.504 3.626l-7.368 7.373a.994.994 0 0 1-.713.297zm-7.665-8.091 7.373 7.373c.078.078.182.12.291.12s.213-.042.291-.12l7.373-7.373c.853-.853 1.327-1.993 1.327-3.205s-.474-2.347-1.327-3.205a4.544 4.544 0 0 0-6.41 0l-.77.77a.682.682 0 0 1-.968 0l-.77-.77c-.859-.853-1.993-1.327-3.205-1.327s-2.347.473-3.205 1.327a4.534 4.534 0 0 0 0 6.41z"/>
    </symbol>
    <symbol id="icon-burger" viewBox="0 0 26 32">
      <path d="M21.16 12.4H4.44c-.22 0-.4.18-.4.4s.18.4.4.4h16.72c.22 0 .4-.18.4-.4s-.18-.4-.4-.4zM21.16 20.4H4.44c-.22 0-.4.18-.4.4s.18.4.4.4h16.72c.22 0 .4-.18.4-.4s-.18-.4-.4-.4zM4.44 5.2h16.72c.22 0 .4-.18.4-.4s-.18-.4-.4-.4H4.44c-.22 0-.4.18-.4.4s.18.4.4.4z"/>
    </symbol>
    <symbol id="icon-right" viewBox="0 0 26 32">
      <path d="M22.48 12.952a.4.4 0 0 0-.088-.436l-8.628-8.628a.398.398 0 1 0-.564.564l7.944 7.948H3.488c-.22 0-.4.18-.4.4s.18.4.4.4h17.656L13.2 21.148a.398.398 0 0 0 .284.68.41.41 0 0 0 .284-.116l8.628-8.628a.413.413 0 0 0 .084-.132z"/>
    </symbol>
    <symbol id="icon-up" viewBox="0 0 26 32">
      <path d="M21.712 12.4a.398.398 0 0 1-.564 0L13.2 4.456v17.656c0 .22-.18.4-.4.4s-.4-.18-.4-.4V4.456L4.452 12.4a.398.398 0 1 1-.564-.564l8.628-8.628a.382.382 0 0 1 .132-.088c.048-.02.1-.032.152-.032s.104.012.152.032.092.048.132.088l8.628 8.628a.398.398 0 0 1 0 .564z"/>
    </symbol>
    <symbol id="icon-close" viewBox="0 0 26 32">
      <path d="m13.364 12.8 6.628-6.628a.398.398 0 1 0-.564-.564L12.8 12.236 6.172 5.608a.398.398 0 1 0-.564.564l6.628 6.628-6.628 6.628a.398.398 0 0 0 .284.68.41.41 0 0 0 .284-.116l6.624-6.628 6.628 6.628c.08.08.18.116.284.116s.204-.04.284-.116a.398.398 0 0 0 0-.564L13.364 12.8z"/>
    </symbol>
  </defs>
</svg>
